<?xml version="1.0" encoding="UTF-8" standalone="no"?>
<!DOCTYPE svg PUBLIC "-//W3C//DTD SVG 1.1//EN" "http://www.w3.org/Graphics/SVG/1.1/DTD/svg11.dtd">
<svg
	width="100%"
	height="100%"
	viewBox="0 0 32 32"
	version="1.1"
	xmlns="http://www.w3.org/2000/svg"
	xmlns:xlink="http://www.w3.org/1999/xlink"
	xml:space="preserve"
	xmlns:serif="http://www.serif.com/"
	style="fill-rule: evenodd; clip-rule: evenodd; stroke-linejoin: round; stroke-miterlimit: 2"
>
	<style>
		path {
			fill: #000;
		}
		@media (prefers-color-scheme: dark) {
			path {
				fill: #fff;
			}
		}
	</style>
	<g transform="matrix(1,0,0,1,-55509,-21981)">
		<g id="Favicon" transform="matrix(0.137813,0,0,0.133333,47859,19050.2)">
			<clipPath id="_clip1">
				<rect x="55510" y="21981" width="232.199" height="240" />
			</clipPath>
			<g clip-path="url(#_clip1)">
				<g transform="matrix(0.0753365,0,0,0.0778675,53560.1,21639.8)">
					<path
						d="M28553.2,6004.34C28447,6236.04 28265.8,6426.33 28040.7,6544.03L28486.6,6834.83C28628.4,6927.31 28668.4,7117.51 28576,7259.3C28483.5,7401.09 28293.3,7441.12 28151.5,7348.64L27029.6,6616.94L27029.6,7099.46C27029.6,7281.9 26881.5,7430.02 26699.1,7430.02C26516.7,7430.02 26368.5,7281.9 26368.5,7099.46L26368.5,5617.06L26368.5,5616.43C26366.3,5587.31 26365.2,5557.79 26365.2,5528C26365.2,4895.62 26878.6,4382.21 27511,4382.21C27811.2,4382.21 28084.5,4497.9 28289,4687.15C28550,4949.32 28328.3,5356.97 27964.7,5632.08C27965.5,5621.03 27965.9,5609.84 27965.9,5598.57C27965.9,5341.71 27757.4,5133.18 27500.6,5133.18C27243.7,5133.18 27035.2,5341.71 27035.2,5598.57C27035.2,5855.42 27243.7,6063.95 27500.6,6063.95C27687.9,6063.95 27849.5,5953.04 27923.2,5793.34C28083.7,5793.56 28272.7,5794.79 28414.1,5795.92C28485.1,5809.49 28542.4,5861.03 28556,5930.8C28560.8,5955.29 28559.7,5980.36 28553.2,6004.34Z"
					/>
				</g>
			</g>
		</g>
	</g>
</svg>
